<?xml version="1.0" encoding="utf-8"?>
<!DOCTYPE svg PUBLIC "-//W3C//DTD SVG 20010904//EN" "http://www.w3.org/TR/2001/REC-SVG-20010904/DTD/svg10.dtd">
<svg version="1.0" xmlns="http://www.w3.org/2000/svg" width="666px" height="375px" viewBox="0 0 666 375" preserveAspectRatio="xMidYMid meet">
 <g fill="#33007e">
  <path d="M126.7 188.2 c0.3 -1.4 -1.6 -3.3 -7.7 -7.8 -4.5 -3.2 -9.1 -6.6 -10.3 -7.5 l-2 -1.6 2.1 -3.1 c1.2 -1.6 2.2 -3.4 2.2 -3.8 0 -1 7 -11.5 9.3 -13.7 1.7 -1.8 1.9 -1.7 7 2 2.8 2.1 5.7 4.1 6.2 4.5 0.6 0.5 2.3 1.8 3.9 3 2.7 2 2.8 2.3 2.1 8.7 -1 10.2 -6.7 21.1 -11 21.1 -1.7 0 -2.2 -0.4 -1.8 -1.8z"/>
 </g>
 <g fill="#500076">
  <path d="M129.8 184.3 c3.1 -4.6 6 -11.6 6.5 -16.1 0.4 -3.3 0 -4.9 -1.9 -7.7 -2.7 -4 -3 -5.1 -1.1 -3.5 0.6 0.5 2.4 1.9 4 3.1 2.1 1.6 2.7 2.9 2.7 5.7 0 6.3 -1.2 11.2 -2.6 11.2 -0.9 0 -1.4 1.1 -1.4 3 0 1.7 -0.4 3 -1 3 -0.5 0 -1 0.9 -1 2 0 1.6 -0.7 2 -3.1 2 l-3 0 1.9 -2.7z"/>
  <path d="M101.9 168.2 c-4.2 -3.1 -8.9 -6.6 -10.5 -7.8 l-2.9 -2.1 2 -3.9 c1.1 -2.1 2.5 -4.3 3.2 -4.9 1.6 -1.4 8.3 -12.2 8.3 -13.5 0 -1.7 1.3 -1.1 7.5 3.6 3.3 2.5 7.9 5.9 10.3 7.6 3.7 2.8 5.7 6.8 3.4 6.8 -0.9 0 -8.8 11.9 -8.5 12.9 0.1 0.3 -1.1 2.1 -2.5 3.8 l-2.7 3.2 -7.6 -5.7z"/>
 </g>
 <g fill="#72006c">
  <path d="M16 238.2 c0 -3.2 0.5 -5.4 1.5 -6.2 0.8 -0.7 1.5 -1.8 1.5 -2.4 0 -1.8 2.4 -6.6 3.3 -6.6 0.4 0 0.7 -0.7 0.7 -1.5 0 -0.8 0.4 -1.5 0.8 -1.5 0.5 0 1.7 -1.8 2.8 -4 1 -2.2 2.2 -4 2.5 -4 0.8 0 6.3 -8.6 8.5 -13.2 1.3 -2.8 2.4 -3.8 4.1 -3.8 2.3 0 2.3 0.1 2.3 12.3 0 10.4 -0.3 12.7 -2 15.4 -1.8 3 -9.3 9 -21.2 17.2 l-4.8 3.2 0 -4.9z"/>
  <path d="M82.5 153.9 c-4.9 -3.8 -9.1 -7.5 -9.3 -8.4 -0.2 -0.8 0.6 -2.8 1.7 -4.4 1.2 -1.6 2.1 -3.2 2.1 -3.6 0 -0.3 0.6 -1.3 1.3 -2 2.8 -3.2 3.6 -4.4 5.7 -8.4 1.1 -2.3 2.5 -4.1 3 -3.9 2.2 0.7 19.8 14.3 18.9 14.6 -0.5 0.2 -0.9 0.8 -0.9 1.3 0 1.5 -8.1 13.9 -9.1 13.9 -0.5 0 -0.9 0.6 -0.9 1.3 0 0.6 -0.8 2.4 -1.8 3.8 l-1.7 2.6 -9 -6.8z"/>
 </g>
 <g fill="#870065">
  <path d="M16 220 c0 -18.8 0 -18.9 2.5 -21.7 4.6 -5.1 5.5 -6.3 5.5 -7.5 0 -1.1 4.6 -7.8 6.1 -8.8 0.4 -0.3 1.3 -1.7 1.8 -3 0.6 -1.4 2.3 -4.3 3.6 -6.5 1.4 -2.2 2.8 -4.6 3.1 -5.2 0.4 -0.7 1.7 -1.3 3 -1.3 l2.4 0 0 16 c0 8.8 -0.4 16 -0.8 16 -0.5 0 -1.6 1.7 -2.6 3.8 -2.2 4.6 -7.7 13.2 -8.5 13.2 -0.3 0 -1.5 1.8 -2.5 4 -1.1 2.2 -2.3 4 -2.8 4 -0.4 0 -0.8 1 -0.8 2.2 0 1.2 -0.3 1.8 -0.7 1.5 -0.7 -0.7 -3.3 3.8 -3.3 5.7 0 0.6 -1.3 2.3 -3 3.8 l-3 2.6 0 -18.8z"/>
  <path d="M71 145.4 c-2.5 -1.9 -6 -4.4 -7.7 -5.6 -1.8 -1.3 -3.3 -2.9 -3.3 -3.6 0 -0.7 1.6 -3.8 3.5 -6.8 1.9 -3 3.5 -5.6 3.5 -5.8 0 -0.3 0.9 -1.5 2 -2.8 1.1 -1.2 2.8 -3.4 3.8 -4.7 l1.8 -2.4 8.3 6.2 c4.6 3.3 7.8 6.1 7.2 6.1 -0.6 0 -2 1.9 -3.2 4.1 -2 4 -2.8 5.2 -5.7 8.4 -0.7 0.8 -1.1 1.5 -0.7 1.5 0.3 0 -0.5 1.5 -1.9 3.3 -1.3 1.7 -2.5 3.6 -2.4 4 0 1.7 -0.8 1.4 -5.2 -1.9z"/>
 </g>
 <g fill="#9b005f">
  <path d="M16.1 192.3 c-0.1 -10.7 0.3 -18.3 0.8 -18.3 0.5 0 1.3 -1 1.7 -2.2 0.4 -1.3 1.7 -3.5 3 -5 1.2 -1.6 2.6 -3.8 3 -5 0.3 -1.2 1.5 -3.1 2.5 -4.2 1.1 -1.1 1.9 -2.5 1.9 -3.1 0 -0.6 0.9 -1.7 2 -2.5 1.1 -0.8 2 -2 2 -2.7 0 -0.7 0.5 -1.3 1 -1.3 0.6 0 1 -0.6 1 -1.4 0 -0.7 0.7 -1.9 1.5 -2.6 0.8 -0.7 1.5 -2.1 1.5 -3.1 0 -1.4 0.7 -1.9 3 -1.9 l3 0 0 14.5 c0 12.3 -0.3 14.8 -1.7 16.5 -2.2 2.5 -5.9 8.6 -7.4 12 -0.5 1.3 -1.4 2.7 -1.8 3 -1.8 1.3 -6.1 7.8 -6.1 9.3 0 1 -0.4 1.7 -1 1.7 -1.1 0 -4.5 6.1 -4.2 7.3 0.2 0.5 -0.3 0.7 -1 0.5 -0.7 -0.3 -2 1.1 -3 3.1 -1.6 3.5 -1.6 3.2 -1.7 -14.6z"/>
  <path d="M55.1 133.8 c-6.5 -4.8 -7.1 -5.6 -6.7 -8.1 0.3 -1.5 1.5 -3.7 2.6 -4.9 1.2 -1.3 2.3 -3.2 2.6 -4.5 0.3 -1.2 1.2 -2.4 2 -2.7 0.8 -0.3 1.4 -1.2 1.4 -2.1 0 -0.8 0.4 -1.5 1 -1.5 0.5 0 1.2 -1.1 1.6 -2.5 0.3 -1.4 1.1 -2.5 1.8 -2.5 0.6 0 4.6 2.5 8.8 5.5 l7.7 5.6 -3.1 4.4 c-1.8 2.5 -3.5 4.5 -4 4.5 -0.4 0 -0.8 0.4 -0.8 1 0 0.5 -1.7 3.7 -3.8 7 l-3.9 6.1 -7.2 -5.3z"/>
 </g>
 <g fill="#6e0098">
  <path d="M141 211 c0 -0.5 -1.2 -2.3 -2.7 -3.9 -4.9 -5.1 -8.3 -9.5 -8.3 -10.6 0 -0.5 -1.2 -2.1 -2.5 -3.4 l-2.6 -2.4 2.6 -3.1 c4.1 -5 8.3 -13.8 9 -19 0.6 -4 0.4 -5.2 -1.4 -7.7 -2.6 -3.4 -1.5 -3.7 2.5 -0.7 6.1 4.6 10.7 9.5 13.2 14.3 2.2 4.2 2.6 6.3 2.6 13.5 0.1 7 -0.3 9.3 -2.2 12.7 -3.7 7.1 -10.2 13.6 -10.2 10.3z"/>
 </g>
 <g fill="#b00058">
  <path d="M16 165.9 c0 -16.3 0.1 -17.7 2 -19.4 1.1 -1 2 -2.4 2 -3.2 0 -0.7 0.4 -1.3 0.9 -1.3 0.5 0 1.2 -1.1 1.5 -2.5 0.4 -1.4 1.4 -3.4 2.4 -4.5 3.4 -3.7 4.2 -4.9 4.2 -6.4 0 -0.7 0.7 -1.6 1.5 -2 0.8 -0.3 1.5 -1.2 1.5 -2.1 0 -0.8 0.4 -1.5 0.9 -1.5 0.5 0 1.2 -0.8 1.5 -1.7 0.7 -2.1 1.8 -3.9 6.9 -11.4 2 -3.1 3.7 -6.3 3.7 -7.3 0 -1.9 2.4 -2 9 -0.6 4.9 1.1 11 4 11 5.2 0 0.5 -0.4 0.8 -0.9 0.8 -0.5 0 -1.2 1.1 -1.5 2.5 -0.4 1.4 -1.1 2.5 -1.6 2.5 -0.6 0 -1 0.7 -1 1.5 0 0.7 -0.6 1.8 -1.2 2.2 -0.7 0.4 -2.2 2.5 -3.2 4.6 -1.1 2 -2.2 3.7 -2.6 3.7 -0.5 0 -1.1 1.1 -1.4 2.4 -0.4 1.8 -1.1 2.3 -2.6 1.9 -3.5 -0.9 -5 1.4 -5 7.8 0 4.8 -0.3 5.7 -1.5 5.3 -1 -0.4 -1.5 0 -1.5 1.4 0 1.1 -0.7 2.5 -1.5 3.2 -0.8 0.7 -1.5 1.9 -1.5 2.6 0 0.8 -0.4 1.4 -1 1.4 -0.5 0 -1 0.5 -1 1.1 0 0.7 -0.8 1.9 -1.8 2.8 -1.9 1.6 -3.6 5 -3.4 6.4 0.1 0.4 -0.5 0.7 -1.4 0.7 -0.8 0 -1.3 0.3 -1 0.8 0.2 0.4 -0.9 2.5 -2.5 4.7 -1.6 2.2 -3.3 5.1 -3.9 6.5 -0.6 1.3 -1.5 2.7 -1.9 3 -0.5 0.3 -1.5 1.9 -2.4 3.5 -1.5 2.9 -1.6 2.1 -1.7 -14.6z"/>
  <path d="M16 130.8 c0 -3 1.3 -5.8 2.6 -5.8 0.9 0 1.4 1.2 1.4 3.5 0 2.8 -0.4 3.5 -2 3.5 -1.1 0 -2 -0.6 -2 -1.2z"/>
 </g>
 <g fill="#bf0054">
  <path d="M16.2 140.4 c0.3 -14.3 0.6 -16.4 2.8 -20.9 5.9 -12.1 20.1 -20.2 31 -17.6 1.9 0.5 2.7 0.9 1.8 1 -0.9 0.1 -2 1.1 -2.4 2.3 -0.3 1.2 -1.3 2.9 -2.1 3.7 -1.3 1.2 -3.8 4.9 -8 11.6 -0.7 1.1 -1.6 2.8 -1.9 3.8 -0.3 0.9 -1 1.7 -1.5 1.7 -0.5 0 -0.9 0.7 -0.9 1.5 0 0.7 -0.6 1.8 -1.4 2.2 -0.8 0.4 -1.4 1.2 -1.4 1.7 0.1 1 -2 4.2 -4.4 6.7 -1 1 -2 3 -2.4 4.4 -0.3 1.4 -1 2.5 -1.5 2.5 -0.5 0 -0.9 0.6 -0.9 1.3 0 0.8 -1.1 2.4 -2.5 3.7 -1.4 1.3 -2.5 2.9 -2.5 3.6 0 0.7 -0.5 1.6 -1.1 2 -0.8 0.5 -1 -3.6 -0.7 -15.2z"/>
 </g>
 <g fill="#880090">
  <path d="M126.5 220 c-0.3 -1.1 -1.1 -2 -1.6 -2 -0.5 0 -0.9 -0.6 -0.9 -1.2 0 -0.7 -1.5 -3 -3.3 -5 -6.6 -7.5 -7.7 -9 -7.6 -10.6 0 -1 3.6 -4.5 7.9 -7.9 7 -5.5 8 -6 8.5 -4.2 0.4 1 1.1 1.9 1.6 1.9 0.6 0 1.5 1.4 2 3 0.6 1.7 1.5 3 1.9 3 0.5 0 1.7 1.3 2.7 3 0.9 1.7 2.3 3 3.1 3 0.7 0 1.1 0.4 0.7 0.9 -0.3 0.6 0.1 1.3 0.9 1.8 3.5 2 2.2 4.6 -5.4 10.4 -4.1 3.2 -8 5.9 -8.7 5.9 -0.6 0 -1.5 -0.9 -1.8 -2z"/>
 </g>
 <g fill="#9a008b">
  <path d="M113.4 226.3 c-1.6 -2.1 -3.3 -4.4 -3.9 -5.2 -0.5 -0.7 -2.1 -2.5 -3.5 -4 -1.4 -1.5 -3.1 -3.9 -3.9 -5.4 -1.3 -2.4 -1.2 -2.8 1.8 -5.3 1.8 -1.5 5.1 -4 7.4 -5.5 l4.2 -2.8 1.3 2.4 c0.7 1.4 2 2.5 2.8 2.5 0.8 0 1.3 0.4 0.9 0.9 -0.3 0.5 1.1 2.7 3 4.8 1.9 2.1 3.5 4.4 3.5 5.1 0 0.6 0.4 1.2 0.9 1.2 0.5 0 1.3 0.9 1.6 2.1 0.5 1.5 1.3 1.9 2.7 1.5 1.2 -0.2 1.7 -0.1 1.2 0.3 -2 1.8 -15.8 11.1 -16.4 11.1 -0.4 0 -2 -1.7 -3.6 -3.7z"/>
 </g>
 <g fill="#af0085">
  <path d="M101.4 237.7 c-1 -1.2 -3 -3.9 -4.4 -6 -1.4 -2 -3.1 -3.7 -3.7 -3.7 -0.7 0 -1.3 -0.6 -1.3 -1.4 0 -0.7 -1.1 -2.2 -2.5 -3.2 -3.1 -2.3 -3.1 -4.4 -0.2 -6.5 9.5 -6.8 15.7 -10.9 15.6 -10.2 -0.4 1.4 1.3 4.3 4 7.2 1.4 1.5 3.7 4.3 5.1 6.2 1.4 1.8 3.4 4.3 4.6 5.5 l2 2.1 -3.5 3 c-3.7 3 -12.7 9.3 -13.3 9.3 -0.3 0 -1.3 -1 -2.4 -2.3z"/>
 </g>
 <g fill="#c4007f">
  <path d="M88 248.7 c0 -2.1 -0.8 -4.1 -2 -5.2 -1.1 -1 -2 -2.1 -2 -2.5 0 -0.4 -2 -2.8 -4.5 -5.4 -2.5 -2.7 -4.5 -5.6 -4.5 -6.5 0.1 -1.8 15.1 -13.3 16.2 -12.3 0.4 0.4 0.8 1.4 1 2.2 0.2 0.8 1.1 2.1 2.1 2.8 0.9 0.7 1.5 1.8 1.2 2.3 -0.4 0.5 0 0.9 0.7 0.9 0.7 0 2.4 1.7 3.8 3.8 1.4 2 3.5 4.8 4.8 6.2 l2.3 2.5 -3.8 3.2 c-2.1 1.8 -6.4 5.1 -9.5 7.3 l-5.8 4.1 0 -3.4z"/>
 </g>
 <g fill="#d80078">
  <path d="M72 261.1 c0 -2.4 0.4 -3.1 2 -3.1 2.7 0 2.5 -1.2 -1 -5.1 -1.7 -1.9 -3.7 -4.5 -4.4 -5.9 -0.8 -1.4 -2.6 -3.5 -4 -4.7 -1.4 -1.3 -2.6 -2.9 -2.6 -3.5 0 -1.4 4.7 -5.5 11.3 -9.9 l3.9 -2.7 2.4 2.3 c1.3 1.2 2.4 2.7 2.4 3.3 0 0.6 1 1.9 2.3 2.9 1.2 1 2.8 2.8 3.5 3.8 0.7 1.1 2.2 3.5 3.3 5.2 1.2 1.8 2.5 3 3 2.7 0.5 -0.3 0.9 -0.3 0.9 -0.1 0 0.4 -12.6 10.1 -21.2 16.5 -1.6 1.2 -1.8 1 -1.8 -1.7z"/>
 </g>
 <g fill="#eb0072">
  <path d="M63.6 266.4 c-0.9 -0.8 -1.6 -1.8 -1.6 -2.2 0 -0.4 -1 -1.9 -2.3 -3.4 -1.2 -1.4 -2.9 -3.6 -3.7 -4.8 -0.8 -1.2 -2.8 -3.6 -4.3 -5.2 -2.5 -2.8 -2.6 -3.2 -1.2 -4.8 2.2 -2.4 17.4 -12.8 15.7 -10.7 -1.2 1.4 -1 1.9 1.3 3.9 1.5 1.3 3.3 3.4 4.1 4.8 0.7 1.4 2.7 4 4.4 5.9 1.6 1.8 3 3.8 3 4.2 0 0.5 0.7 0.9 1.5 0.9 0.8 0 1.5 0.4 1.5 0.8 0 0.9 -15.2 12.2 -16.3 12.2 -0.3 0 -1.3 -0.7 -2.1 -1.6z"/>
  <path d="M34.7 257.2 c1 -1 2.6 -2.4 3.6 -3.1 1.5 -1.2 1.7 -1 1.7 1.8 0 2.9 -0.2 3.1 -3.5 3.1 -3.4 0 -3.5 -0.1 -1.8 -1.8z"/>
 </g>
 <g fill="#ff006b">
  <path d="M35.6 272 c-9.5 -3.7 -11.3 -8.2 -4.8 -12.1 2 -1.3 4.3 -2.9 5.1 -3.7 0.7 -0.7 4.6 -3.5 8.5 -6.1 9.4 -6.3 10.1 -6.7 9.2 -5.3 -0.4 0.7 0.4 2.3 1.8 3.7 1.5 1.4 2.6 3 2.6 3.6 0 0.6 0.5 0.7 1 0.4 0.6 -0.3 1 0 1 0.8 0 0.8 1.1 2.7 2.5 4.3 1.4 1.6 2.8 3.7 3.1 4.7 0.5 1.7 1.6 2.1 4.4 1.7 2.9 -0.4 -7.5 7 -11.9 8.5 -6.1 2.1 -16.5 1.8 -22.5 -0.5z"/>
 </g>
 <g fill="#ffffff">
  <path d="M244.1 228 c-19.3 -2.2 -24.8 -9.2 -25.8 -33.3 -0.6 -13.2 0.9 -25.1 3.7 -30.8 2.7 -5.3 9.2 -10.6 15.2 -12.4 11.2 -3.5 27 -2.9 37.2 1.5 6.3 2.7 11 9.4 13.1 18.7 1.9 8.7 1.3 13.4 -2.6 17.7 l-2.7 3.1 -26.1 0.3 -26.1 0.3 0 6.2 c0 8.3 3 14.3 8.5 17.4 3.8 2.2 5.1 2.3 25.8 2.3 l21.7 0 0 4.5 0 4.5 -10.7 0 c-6 0 -13.7 0.2 -17.3 0.4 -3.6 0.3 -9.8 0.1 -13.9 -0.4z m31.9 -45.5 c1.7 -2.1 0.8 -10.3 -1.7 -15.1 -1.2 -2.5 -3.6 -4.8 -6.4 -6.4 -3.9 -2.2 -5.5 -2.5 -14.9 -2.5 -10 0 -10.7 0.1 -15 3 -5.1 3.5 -6.6 6 -8.1 13.9 -1.9 9.1 -3.1 8.6 22.4 8.6 18.8 0 22.7 -0.2 23.7 -1.5z"/>
  <path d="M177.3 198.8 c0.3 -16.1 1 -30.8 1.6 -32.7 3.2 -10.4 10.3 -14.8 25.6 -15.8 l9.5 -0.6 -0.1 4.6 -0.2 4.7 -5.9 0 c-10.6 0 -16.7 4.6 -18.7 14 -0.6 2.9 -1.1 15.8 -1.1 30 l0 25 -5.6 0 -5.7 0 0.6 -29.2z"/>
  <path d="M325.5 227.3 c-11.2 -1.5 -18.6 -7.5 -21.8 -17.7 -2.4 -7.6 -3.3 -24.3 -1.8 -33.1 2.4 -13.5 6.4 -19.5 15.6 -23.6 4.5 -2 7.1 -2.3 25.3 -2.7 l20.2 -0.5 0 4.7 0 4.6 -16.7 0 c-9.3 0 -18.4 0.5 -20.3 1 -8.5 2.3 -14 13.7 -14 28.8 0 8.5 2.5 19.5 5.3 23.6 3.6 5.1 7.3 6 28.1 6.6 l18.9 0.5 0.1 4.3 0.1 4.2 -18 -0.1 c-9.9 -0.1 -19.3 -0.4 -21 -0.6z"/>
  <path d="M377.1 176.8 c0.1 -28.2 0.3 -51.6 0.5 -51.9 0.2 -0.3 1.7 -0.4 3.4 -0.1 l3 0.4 0 51.4 0 51.4 -3.5 0 -3.6 0 0.2 -51.2z"/>
  <path d="M412.3 227 c-5.1 -1.2 -9.8 -5.3 -11.1 -9.8 -1.6 -5.2 -1.5 -21.2 0.1 -24.9 1.6 -4 6.3 -7.8 11.2 -9.2 2.3 -0.6 12.3 -1.1 23.3 -1.1 l19.2 0 0 -9.4 c0 -7.9 -0.3 -9.7 -2.1 -12 -4.1 -5.2 -6.2 -5.6 -27.4 -5.6 l-19.5 0 0 -2.6 0 -2.6 22.3 0.4 c33.6 0.5 32.2 -1.3 33.2 40.9 0.7 25.7 0.6 28.9 -0.9 32.1 -1.3 2.6 -2.5 3.7 -4.8 4.2 -4.3 0.8 -39.6 0.6 -43.5 -0.4z m41 -5.3 c1.6 -1.1 1.7 -3.1 1.5 -17.7 l-0.3 -16.5 -18.1 -0.3 c-27.3 -0.4 -29.9 1.1 -29.9 17.1 0 10.4 1.5 15.1 5.4 17.2 3.5 1.9 38.9 2.1 41.4 0.2z"/>
  <path d="M477 225 l0 -3.2 25.6 0.4 25.6 0.3 2.9 -3.3 c2.5 -2.8 2.9 -4 2.9 -9.1 0 -10.2 -1.1 -10.9 -29.5 -18.1 -8.8 -2.3 -17.9 -5.2 -20.3 -6.6 -5.6 -3.3 -8.2 -8.5 -8.2 -16.4 0 -7.5 2.4 -12.5 7.6 -16 3.7 -2.5 4.1 -2.5 27.8 -2.8 l24.1 -0.4 0.1 2.6 0.2 2.6 -22 0 c-17.5 0 -22.5 0.3 -24.8 1.5 -4.6 2.4 -6 5.2 -6 12.2 0 5.5 0.4 6.6 3 9.6 3.8 4.3 5.1 4.8 24.5 9.3 25.4 5.7 29.5 8.8 29.5 21.8 0 8.1 -1.9 12.7 -6.3 16 -2.7 2 -4.4 2.1 -29.8 2.4 l-26.9 0.3 0 -3.1z"/>
  <path d="M552 225 l0 -3.2 24.3 0.5 c30.9 0.6 31.7 0.3 31.7 -12.6 0 -9.9 -1.6 -11 -26.6 -17.2 -9.6 -2.4 -19.3 -5.4 -21.7 -6.7 -11.6 -6.3 -11.7 -27.5 -0.2 -33.3 3.6 -1.8 6.4 -2 27.5 -2.3 l23.5 -0.3 0.1 2.5 0.2 2.6 -21.3 0 c-12.7 0 -22.5 0.4 -24.2 1.1 -6.8 2.5 -9.6 9.3 -7.4 17.6 2.1 7.6 4.6 8.7 36.2 15.8 9.2 2.1 15.5 5.1 18.3 8.9 2.8 3.8 3.1 18.7 0.3 22.9 -3.8 5.8 -5.8 6.2 -34.4 6.5 l-26.3 0.3 0 -3.1z"/>
  <path d="M621.9 144 c-1.3 -1 -1.9 -1.9 -1.3 -2 0.6 0 1.9 0.9 2.9 2 2.3 2.6 1.4 2.6 -1.6 0z"/>
  <path d="M629.2 144.4 c1.5 -0.8 3.4 -2.7 4.2 -4.2 1 -1.8 1.5 -2.1 1.6 -1 0 1.8 -5.4 6.8 -7.3 6.8 -0.7 -0.1 0 -0.7 1.5 -1.6z"/>
  <path d="M618.4 139.6 c-0.3 -0.8 -0.4 -2.3 -0.2 -3.3 0.3 -1.1 0.6 -0.6 0.9 1.5 0.6 3.4 0.2 4.2 -0.7 1.8z"/>
  <path d="M624.2 137 c0 -1.9 0.2 -2.7 0.5 -1.7 0.2 0.9 0.2 2.5 0 3.5 -0.3 0.9 -0.5 0.1 -0.5 -1.8z"/>
  <path d="M634.1 135.8 c-0.1 -0.9 -1.5 -2.8 -3.3 -4.3 -2.2 -1.9 -2.7 -2.6 -1.4 -2.4 2.4 0.5 6 5.3 5.3 7 -0.4 1 -0.6 0.9 -0.6 -0.3z"/>
  <path d="M619.6 132.5 c0.6 -1.5 4.3 -4 4.9 -3.3 0.1 0.2 -1.1 1.3 -2.6 2.6 -2.1 1.7 -2.7 1.9 -2.3 0.7z"/>
 </g>
</svg>