<?xml version="1.0" encoding="UTF-8"?>
<svg xmlns="http://www.w3.org/2000/svg" xmlns:xlink="http://www.w3.org/1999/xlink" width="366.6pt" height="269.4pt" viewBox="0 0 366.6 269.4" version="1.1">
<defs>
<clipPath id="clip1">
  <path d="M 202 0 L 366.601563 0 L 366.601563 134 L 202 134 Z M 202 0 "/>
</clipPath>
<clipPath id="clip2">
  <path d="M 153 146 L 235 146 L 235 269.398438 L 153 269.398438 Z M 153 146 "/>
</clipPath>
<clipPath id="clip3">
  <path d="M 0 142 L 133 142 L 133 269.398438 L 0 269.398438 Z M 0 142 "/>
</clipPath>
</defs>
<g id="surface1">
<path style=" stroke:none;fill-rule:evenodd;fill:rgb(0%,56.443787%,20.776367%);fill-opacity:1;" d="M 118.472656 0.34375 L 118.472656 84.570313 C 118.472656 102.097656 109.28125 117.585938 95.484375 126.457031 C 76.785156 138.476563 40.921875 137.671875 23.210938 124.40625 C 11.070313 115.3125 3.175781 100.816406 3.175781 84.570313 L 3.175781 0.34375 L 40.042969 0.34375 L 40.042969 86.9375 C 40.042969 111.636719 81.605469 111.636719 81.605469 86.9375 L 81.605469 0.34375 Z M 118.472656 0.34375 "/>
<path style=" stroke:none;fill-rule:evenodd;fill:rgb(0%,56.443787%,20.776367%);fill-opacity:1;" d="M 165.246094 132.535156 L 127.707031 132.535156 L 127.707031 0.855469 L 194.445313 0.855469 C 213.941406 0.855469 229.894531 16.808594 229.894531 36.3125 L 229.894531 47.027344 C 229.894531 66.535156 213.941406 82.484375 194.445313 82.484375 L 165.246094 82.484375 L 165.246094 132.539063 Z M 165.246094 56.71875 L 181.964844 56.71875 C 189.15625 56.71875 195.039063 50.835938 195.039063 43.648438 L 195.039063 39.691406 C 195.039063 32.503906 189.15625 26.621094 181.964844 26.621094 L 165.246094 26.621094 Z M 165.246094 56.71875 "/>
<g clip-path="url(#clip1)" clip-rule="nonzero">
<path style=" stroke:none;fill-rule:evenodd;fill:rgb(0%,56.443787%,20.776367%);fill-opacity:1;" d="M 261.792969 103.636719 L 252.808594 133.726563 L 202.484375 133.726563 L 250.414063 -0.0390625 L 318.710938 -0.0390625 L 366.640625 133.726563 L 316.316406 133.726563 L 307.332031 103.636719 Z M 261.792969 103.636719 "/>
</g>
<path style=" stroke:none;fill-rule:evenodd;fill:rgb(100%,79.6875%,0%);fill-opacity:1;" d="M 241.335938 57.140625 C 242.421875 58.117188 243.027344 59.6875 244.117188 60.648438 C 245.871094 62.191406 246.257813 64.402344 248.386719 65.28125 C 251.125 66.414063 252.203125 67.3125 252.960938 68.4375 C 253.675781 69.503906 254.195313 70.945313 255.125 71.824219 C 256.097656 72.738281 257.65625 73.769531 259.105469 74.449219 C 261.699219 75.664063 262.273438 77.894531 264.347656 79.929688 C 267.121094 82.648438 268.148438 84.84375 269.542969 86.753906 C 270.84375 88.527344 272.925781 89.546875 274.644531 90.785156 C 276.660156 92.238281 278.140625 94.785156 280.410156 95.941406 C 283.273438 97.40625 284.230469 96.710938 286.21875 94.785156 C 289.261719 91.839844 291.640625 88.777344 297.230469 87.210938 C 300.792969 86.210938 305.808594 83.863281 308.675781 81.503906 C 311.058594 79.539063 313.8125 77.46875 315.894531 75.355469 C 320.214844 70.980469 323.800781 66.65625 328.15625 62.5 C 330.511719 60.257813 334.496094 58.574219 331.121094 55.515625 C 329.285156 53.847656 328.53125 51.976563 326.511719 50.527344 C 322.925781 47.960938 322.671875 47.40625 322.210938 46.738281 C 320.71875 44.578125 317.148438 42.710938 315.292969 40.847656 C 311.347656 36.886719 306.488281 32.847656 301.917969 30.066406 C 295.464844 26.144531 293.203125 22.929688 291.417969 20.296875 C 290.347656 18.714844 288.292969 17.964844 286.746094 18.957031 C 285.976563 19.449219 285.171875 19.890625 284.445313 20.4375 C 282.632813 21.804688 280.597656 22.441406 279.734375 23.507813 C 278.621094 24.878906 276.785156 25.679688 275.316406 26.652344 C 273.492188 27.859375 271.691406 29.089844 269.863281 30.269531 C 267.855469 31.5625 264.515625 32.660156 262.390625 33.675781 C 258.089844 35.738281 255.320313 37.859375 253.492188 39.996094 C 251.699219 42.085938 248.324219 42.585938 246.90625 44.957031 C 246.078125 46.339844 242.207031 48.183594 239 50.285156 C 235.832031 52.363281 236.988281 53.964844 238.664063 55.214844 C 239.542969 55.867188 240.59375 56.480469 241.335938 57.140625 Z M 241.335938 57.140625 "/>
<path style=" stroke:none;fill-rule:evenodd;fill:rgb(0%,46.263123%,74.414063%);fill-opacity:1;" d="M 285.199219 37.25 C 288.191406 37.011719 291.425781 37.117188 293.898438 38.363281 C 295.605469 39.222656 297.460938 40.28125 298.53125 41.898438 C 299.167969 42.855469 300.347656 43.710938 301.914063 44.667969 C 303.441406 45.597656 303.476563 47.375 304.195313 48.832031 C 305.296875 51.054688 306.71875 53.269531 306.71875 55.835938 C 306.71875 58.398438 306.925781 61.015625 305.242188 62.835938 C 303.183594 65.058594 301.949219 67.292969 300.578125 68.976563 C 298.945313 70.980469 297.457031 71.828125 294.710938 72.144531 C 291.371094 72.53125 287.949219 73.753906 285.429688 73.953125 C 279.792969 74.402344 278.222656 74.574219 276.734375 72.957031 C 274.730469 70.785156 271.480469 70.878906 269.820313 68.976563 C 269.105469 68.152344 268.480469 67.007813 266.671875 65.75 C 265.820313 65.15625 265.605469 63.96875 265.160156 63.066406 C 264.402344 61.539063 263.296875 60.71875 263.042969 59.015625 C 262.929688 58.238281 263.449219 56.636719 263.449219 55.835938 C 263.449219 54.710938 263.101563 53.265625 263.324219 52.195313 C 263.613281 50.824219 264.539063 49.851563 265.160156 48.601563 C 266.257813 46.378906 267.050781 44.132813 269.589844 43.621094 C 270.460938 43.445313 271.066406 42.695313 272.921875 40.886719 C 274.007813 39.835938 275.351563 38.726563 276.734375 38.710938 C 281.117188 38.660156 282.609375 37.453125 285.199219 37.25 Z M 285.199219 37.25 "/>
<g clip-path="url(#clip2)" clip-rule="nonzero">
<path style=" stroke:none;fill-rule:evenodd;fill:rgb(0%,46.263123%,74.414063%);fill-opacity:1;" d="M 169.925781 269.050781 L 153.277344 269.050781 L 153.277344 146.316406 L 169.925781 146.316406 L 169.925781 195.5625 C 178.21875 169.351563 232.253906 166.8125 234.175781 210.78125 L 234.175781 269.050781 L 217.527344 269.050781 L 217.527344 214.421875 C 217.527344 210.578125 217.179688 202.753906 212.941406 196.804688 C 203.511719 183.570313 184.042969 189.644531 176.980469 199.519531 C 173.878906 203.851563 169.925781 210.75 169.925781 216.175781 Z M 169.925781 269.050781 "/>
</g>
<g clip-path="url(#clip3)" clip-rule="nonzero">
<path style=" stroke:none;fill-rule:evenodd;fill:rgb(0%,46.263123%,74.414063%);fill-opacity:1;" d="M 132.542969 206.785156 L 132.542969 145.730469 C 123.875 145.730469 115.207031 145.730469 106.542969 145.730469 L 56.605469 229.15625 L 56.605469 244.421875 L 94.027344 244.421875 L 94.027344 228.886719 L 73.582031 228.886719 L 113.941406 160.914063 L 113.941406 206.785156 Z M 3.988281 150.601563 L 5.269531 166.371094 C 9.355469 164.210938 13.210938 162.464844 16.882813 161.167969 C 26.027344 157.925781 37.6875 156.113281 46.449219 159.585938 C 57.59375 163.996094 61.78125 177.933594 57.414063 188.574219 C 50.714844 204.90625 38.164063 216.347656 25.617188 228.246094 C 17.554688 235.894531 8.898438 243.582031 0.03125 250.699219 L 0.03125 269.328125 L 77.6875 269.328125 L 77.6875 254.785156 L 21.433594 254.785156 C 20.105469 254.785156 20.828125 252.683594 21.652344 251.992188 C 34.429688 241.265625 46.222656 230.296875 55.527344 219.316406 C 64.003906 209.316406 70.714844 200.71875 74.339844 191 C 79.082031 178.285156 76.613281 166.585938 70.132813 157.886719 C 54.261719 136.585938 24.992188 141.675781 3.988281 150.601563 Z M 3.988281 150.601563 "/>
</g>
<path style=" stroke:none;fill-rule:evenodd;fill:rgb(89.0625%,0%,8.616638%);fill-opacity:1;" d="M 153.277344 244.421875 L 132.542969 244.421875 L 132.542969 268.714844 L 113.941406 268.714844 L 113.941406 244.421875 L 94.027344 244.421875 L 94.027344 228.886719 L 113.941406 228.886719 L 113.941406 206.785156 L 132.542969 206.785156 L 132.542969 228.886719 L 153.277344 228.886719 Z M 153.277344 244.421875 "/>
<path style=" stroke:none;fill-rule:evenodd;fill:rgb(100%,100%,100%);fill-opacity:1;" d="M 301.152344 45.730469 C 299.796875 45.265625 298.445313 44.800781 297.089844 44.335938 C 296.820313 43.367188 296.550781 42.398438 296.277344 41.429688 C 295.660156 42.050781 295.039063 42.671875 294.421875 43.289063 C 293.183594 43.25 291.945313 43.210938 290.710938 43.171875 C 290.960938 44.335938 291.851563 45.496094 293.03125 46.660156 C 292.214844 47.585938 292.214844 48.515625 292.335938 49.445313 C 293.535156 48.980469 294.460938 48.246094 295.351563 47.472656 C 295.8125 48.941406 296.742188 50.105469 298.132813 50.957031 C 298.210938 49.675781 298.289063 48.402344 298.367188 47.121094 C 299.449219 47.277344 300.375 46.8125 301.152344 45.730469 Z M 301.152344 45.730469 "/>
<path style=" stroke:none;fill-rule:evenodd;fill:rgb(100%,100%,100%);fill-opacity:1;" d="M 300.570313 63.269531 C 299.394531 62.386719 298.796875 62.28125 297.625 62.023438 C 297.40625 61.238281 297.070313 60.917969 296.851563 60.132813 C 296.347656 60.636719 295.847656 61.136719 295.34375 61.640625 C 294.339844 61.609375 293.335938 61.578125 292.332031 61.546875 C 292.621094 62.488281 293.507813 63.429688 294.214844 64.371094 C 293.710938 65.125 293.710938 65.878906 293.652344 66.632813 C 294.625 66.257813 295.375 65.660156 296.097656 65.03125 C 296.9375 66.226563 297.691406 67.167969 298.355469 67.859375 C 298.417969 66.820313 298.480469 65.785156 298.542969 64.75 C 299.101563 64.410156 299.640625 63.6875 300.570313 63.269531 Z M 300.570313 63.269531 "/>
<path style=" stroke:none;fill-rule:evenodd;fill:rgb(100%,100%,100%);fill-opacity:1;" d="M 283.570313 53.566406 C 284.019531 54.273438 284.3125 54.902344 284.457031 55.457031 C 285.035156 55.484375 285.703125 55.535156 286.585938 55.71875 C 286.320313 56.4375 285.597656 56.75 285.007813 57.148438 C 285.367188 57.675781 285.496094 58.359375 285.398438 59.195313 C 284.765625 58.976563 284.421875 58.714844 283.570313 58.191406 C 283.332031 58.617188 282.589844 58.921875 281.742188 59.195313 C 281.800781 58.511719 281.921875 57.828125 282.132813 57.148438 C 281.398438 56.820313 280.890625 56.347656 280.609375 55.71875 C 281.128906 55.628906 281.703125 55.542969 282.679688 55.457031 C 282.75 54.824219 283.046875 54.195313 283.570313 53.566406 Z M 283.570313 53.566406 "/>
<path style=" stroke:none;fill-rule:evenodd;fill:rgb(100%,100%,100%);fill-opacity:1;" d="M 279.921875 58.074219 C 280.296875 58.667969 280.546875 59.195313 280.667969 59.664063 C 281.152344 59.6875 281.714844 59.726563 282.457031 59.882813 C 282.234375 60.488281 281.625 60.75 281.128906 61.082031 C 281.429688 61.53125 281.539063 62.105469 281.457031 62.808594 C 280.925781 62.621094 280.636719 62.402344 279.921875 61.960938 C 279.71875 62.320313 279.097656 62.578125 278.382813 62.808594 C 278.433594 62.234375 278.535156 61.65625 278.710938 61.082031 C 278.09375 60.8125 277.667969 60.410156 277.433594 59.882813 C 277.867188 59.808594 278.351563 59.734375 279.171875 59.664063 C 279.230469 59.132813 279.480469 58.601563 279.921875 58.074219 Z M 279.921875 58.074219 "/>
<path style=" stroke:none;fill-rule:evenodd;fill:rgb(100%,100%,100%);fill-opacity:1;" d="M 276.433594 54.667969 C 276.871094 55.355469 277.160156 55.96875 277.300781 56.507813 C 277.859375 56.535156 278.515625 56.585938 279.375 56.761719 C 279.117188 57.464844 278.410156 57.769531 277.835938 58.15625 C 278.183594 58.671875 278.3125 59.339844 278.214844 60.152344 C 277.601563 59.941406 277.261719 59.6875 276.433594 59.175781 C 276.203125 59.589844 275.480469 59.886719 274.652344 60.152344 C 274.710938 59.488281 274.828125 58.820313 275.03125 58.15625 C 274.316406 57.839844 273.824219 57.375 273.550781 56.761719 C 274.054688 56.679688 274.617188 56.59375 275.566406 56.507813 C 275.632813 55.894531 275.921875 55.28125 276.433594 54.667969 Z M 276.433594 54.667969 "/>
<path style=" stroke:none;fill-rule:evenodd;fill:rgb(100%,100%,100%);fill-opacity:1;" d="M 283.855469 61.015625 C 284.292969 61.703125 284.582031 62.3125 284.722656 62.855469 C 285.28125 62.882813 285.9375 62.929688 286.796875 63.109375 C 286.539063 63.8125 285.832031 64.117188 285.257813 64.503906 C 285.605469 65.019531 285.734375 65.683594 285.640625 66.5 C 285.023438 66.285156 284.683594 66.03125 283.855469 65.519531 C 283.625 65.933594 282.902344 66.234375 282.074219 66.5 C 282.132813 65.832031 282.25 65.167969 282.453125 64.503906 C 281.738281 64.1875 281.246094 63.722656 280.972656 63.109375 C 281.476563 63.023438 282.039063 62.9375 282.988281 62.855469 C 283.054688 62.242188 283.34375 61.628906 283.855469 61.015625 Z M 283.855469 61.015625 "/>
<path style=" stroke:none;fill-rule:evenodd;fill:rgb(100%,100%,100%);fill-opacity:1;" d="M 288.085938 57.183594 C 288.476563 57.804688 288.738281 58.355469 288.867188 58.84375 C 289.371094 58.867188 289.960938 58.910156 290.734375 59.074219 C 290.503906 59.707031 289.863281 59.980469 289.347656 60.328125 C 289.664063 60.796875 289.777344 61.394531 289.691406 62.132813 C 289.136719 61.9375 288.832031 61.710938 288.085938 61.246094 C 287.875 61.621094 287.222656 61.890625 286.476563 62.132813 C 286.527344 61.53125 286.636719 60.929688 286.820313 60.328125 C 286.175781 60.042969 285.730469 59.625 285.484375 59.074219 C 285.9375 58.996094 286.445313 58.917969 287.304688 58.84375 C 287.363281 58.289063 287.625 57.734375 288.085938 57.183594 Z M 288.085938 57.183594 "/>
<path style=" stroke:none;fill-rule:evenodd;fill:rgb(100%,100%,100%);fill-opacity:1;" d="M 289.910156 62.5 C 290.304688 63.121094 290.566406 63.671875 290.691406 64.160156 C 291.199219 64.1875 291.789063 64.226563 292.5625 64.390625 C 292.328125 65.023438 291.691406 65.296875 291.175781 65.644531 C 291.492188 66.113281 291.605469 66.714844 291.519531 67.449219 C 290.964844 67.253906 290.660156 67.027344 289.910156 66.5625 C 289.703125 66.9375 289.050781 67.207031 288.304688 67.449219 C 288.355469 66.847656 288.460938 66.246094 288.648438 65.644531 C 288 65.359375 287.554688 64.941406 287.308594 64.390625 C 287.765625 64.3125 288.273438 64.234375 289.128906 64.160156 C 289.191406 63.605469 289.449219 63.054688 289.910156 62.5 Z M 289.910156 62.5 "/>
<path style=" stroke:none;fill-rule:evenodd;fill:rgb(100%,100%,100%);fill-opacity:1;" d="M 279.863281 66.730469 C 280.257813 67.351563 280.515625 67.902344 280.644531 68.390625 C 281.148438 68.417969 281.738281 68.460938 282.515625 68.621094 C 282.28125 69.253906 281.644531 69.527344 281.125 69.875 C 281.441406 70.34375 281.554688 70.945313 281.46875 71.679688 C 280.914063 71.484375 280.609375 71.257813 279.863281 70.792969 C 279.652344 71.167969 279 71.4375 278.253906 71.679688 C 278.308594 71.078125 278.414063 70.476563 278.597656 69.875 C 277.953125 69.589844 277.507813 69.171875 277.261719 68.621094 C 277.714844 68.542969 278.222656 68.464844 279.082031 68.390625 C 279.140625 67.835938 279.402344 67.285156 279.863281 66.730469 Z M 279.863281 66.730469 "/>
<path style=" stroke:none;fill-rule:evenodd;fill:rgb(100%,100%,100%);fill-opacity:1;" d="M 270.214844 60.382813 C 270.605469 61.003906 270.867188 61.558594 270.996094 62.042969 C 271.5 62.070313 272.089844 62.113281 272.863281 62.273438 C 272.632813 62.90625 271.992188 63.183594 271.476563 63.53125 C 271.792969 63.996094 271.90625 64.597656 271.820313 65.332031 C 271.265625 65.140625 270.960938 64.910156 270.214844 64.449219 C 270.003906 64.820313 269.351563 65.09375 268.605469 65.332031 C 268.65625 64.730469 268.765625 64.128906 268.949219 63.53125 C 268.304688 63.246094 267.859375 62.828125 267.613281 62.273438 C 268.066406 62.199219 268.574219 62.121094 269.433594 62.042969 C 269.492188 61.492188 269.753906 60.9375 270.214844 60.382813 Z M 270.214844 60.382813 "/>
<path style=" stroke:none;fill-rule:evenodd;fill:rgb(100%,100%,100%);fill-opacity:1;" d="M 306.636719 59.40625 C 306.492188 60.6875 306.132813 61.871094 305.242188 62.835938 C 304.75 63.367188 304.304688 63.898438 303.894531 64.421875 C 303.078125 63.980469 303.171875 63.179688 302.398438 62.378906 C 301.886719 61.847656 300.328125 61.316406 299.753906 60.886719 C 298.558594 59.992188 296.886719 59.472656 296.363281 58.089844 C 296.105469 57.417969 294.660156 57.394531 293.203125 56.941406 C 292.054688 56.589844 290.964844 56.078125 290.074219 55.554688 C 288.742188 54.777344 286.992188 55.203125 285.890625 54.179688 C 285.03125 53.375 283.792969 52.660156 282.292969 53.007813 C 280.125 53.515625 276.957031 53.929688 275.457031 53.597656 C 274.109375 53.292969 273.203125 54.066406 271.980469 54.910156 C 271.222656 55.433594 270.308594 57.265625 267.605469 57.171875 C 266.246094 57.121094 264.65625 57.078125 263.191406 57.492188 C 263.308594 56.875 263.449219 56.246094 263.449219 55.835938 C 263.449219 54.980469 263.25 53.9375 263.25 53.015625 C 264.84375 52.421875 266.4375 51.929688 268.023438 50.421875 C 271.519531 47.097656 276.957031 48.183594 281.0625 46.683594 C 282.8125 46.042969 284.9375 46.328125 286.972656 47.304688 C 288.441406 48.003906 289.582031 48.730469 291.164063 49.304688 C 293.242188 50.058594 295.53125 50.734375 297.53125 52.144531 C 300.613281 54.316406 303.703125 56.675781 306.636719 59.40625 Z M 306.636719 59.40625 "/>
</g>
</svg>
