<svg width="1440" height="726" viewBox="0 0 1440 726" fill="none" xmlns="http://www.w3.org/2000/svg">
<path d="M297.413 652.732C190.118 727.678 57.58 765.664 0 652.732V0H1440V652.732C1390.43 585.37 1194 511 1065.48 652.732C936.96 794.465 707.975 692.426 642.392 643.547C547.255 572.64 452.128 544.664 297.413 652.732Z" fill="#290043"/>
<path d="M297.413 652.732C190.118 727.678 57.58 765.664 0 652.732V0H1440V652.732C1390.43 585.37 1194 511 1065.48 652.732C936.96 794.465 707.975 692.426 642.392 643.547C547.255 572.64 452.128 544.664 297.413 652.732Z" fill="url(#paint0_linear)"/>
<defs>
<linearGradient id="paint0_linear" x1="720" y1="0" x2="720" y2="738" gradientUnits="userSpaceOnUse">
<stop offset="0.9999" stop-color="white"/>
<stop offset="1" stop-color="#290043" stop-opacity="0"/>
</linearGradient>
</defs>
</svg>
