<?xml version="1.0" encoding="utf-8"?>
<!DOCTYPE svg PUBLIC "-//W3C//DTD SVG 20010904//EN" "http://www.w3.org/TR/2001/REC-SVG-20010904/DTD/svg10.dtd">
<svg version="1.0" xmlns="http://www.w3.org/2000/svg" width="716px" height="116px" viewBox="0 0 716 116" preserveAspectRatio="xMidYMid meet">
 <g fill="#310142">
  <path d="M0 69.1 l0 -46.9 6.9 -2.5 c18.2 -6.8 43.4 -12.6 64.1 -14.8 14.9 -1.6 49.1 -1.6 65 0 16.8 1.7 41 6.5 53.4 10.6 5.6 1.8 15.6 5.7 22.1 8.8 23.5 10.7 43.7 16.2 69 18.8 5.5 0.5 14.4 1.9 19.8 3.1 8.6 1.8 13.3 2 37 2 33.3 0 57.2 -2 90.1 -7.8 26.7 -4.7 48.7 -11 78 -22.3 12.6 -4.9 36.6 -11.2 51.6 -13.6 13.9 -2.2 50.6 -3.1 68 -1.6 25.2 2.1 54.6 8 81.3 16.2 l9.7 3.1 0 46.9 0 46.9 -358 0 -358 0 0 -46.9z"/>
 </g>
 <g fill="#420440">
  <path d="M0.1 62.9 l-0.1 -40.7 6.9 -2.5 c18.2 -6.8 43.4 -12.6 64.1 -14.8 14.9 -1.6 49.1 -1.6 65 0 16.8 1.7 41 6.5 53.4 10.6 5.6 1.8 15.6 5.7 22.1 8.8 23.5 10.7 43.7 16.2 69 18.8 5.5 0.5 14.4 1.9 19.8 3.1 8.6 1.8 13.3 2 37 2 33.3 0 57.2 -2 90.1 -7.8 26.7 -4.7 48.7 -11 78 -22.3 12.6 -4.9 36.6 -11.2 51.6 -13.6 13.9 -2.2 50.6 -3.1 68 -1.6 25.2 2.1 54.6 8 81.3 16.2 l9.7 3.1 0 38.9 0 38.9 -357.4 0 c-339.6 0 -357.5 0.1 -357.9 1.8 -0.3 0.9 -0.5 -16.6 -0.6 -38.9z"/>
 </g>
 <g fill="#57083e">
  <path d="M298 91.5 c0 -3.3 -0.4 -4.5 -1.5 -4.5 -1 0 -1.5 1 -1.5 3 0 2.3 -0.4 2.8 -1.6 2.3 -1.2 -0.4 -1.5 -1.8 -1.3 -5.7 l0.3 -5.1 -4.6 -0.3 -4.6 -0.3 0.5 6 c0.5 5.2 0.3 6.1 -1.1 6.1 -1.2 0 -1.6 -1 -1.6 -4 0 -5.4 -2.7 -5.6 -3.2 -0.2 -0.4 4.5 -2.1 4.5 -2.8 0 -0.7 -4.7 -3.4 -4.4 -3.8 0.4 -0.2 2.7 -0.7 3.5 -1.8 3.1 -2 -0.8 -1.9 -7.9 0.3 -9.1 1.4 -0.8 1.4 -1 -0.6 -1.7 -2.9 -0.9 -4.6 0.7 -3.3 3.1 1.3 2.6 -1.2 8.4 -3.6 8.4 -2.9 0 -5.1 -2.3 -5.4 -5.6 -0.2 -2.6 -0.5 -3 -2.5 -2.6 -1.9 0.4 -2.3 1.1 -2.3 4.1 0 2.7 -0.4 3.8 -1.5 3.8 -1.1 0 -1.5 -1.2 -1.5 -4.9 0 -2.7 0.5 -4.8 1.1 -4.8 0.5 0 0.7 -0.4 0.4 -1 -0.7 -1.1 -4.8 -1.4 -5.8 -0.4 -0.3 0.4 0 1.3 0.8 2.1 3.1 3 0.8 9.3 -3.4 9.3 -3.7 0 -5.4 -2.4 -4.9 -6.8 0.6 -4.1 0.5 -4.2 -2.8 -4.8 -1.9 -0.3 -3.7 -0.4 -3.9 -0.2 -0.3 0.2 -0.7 2.3 -1 4.6 -0.5 4.1 -0.5 4.2 2.6 4.2 1.9 0 2.9 0.4 2.7 1.2 -0.2 0.6 -2.2 1.1 -4.4 1.1 l-3.9 0 -0.3 -5.6 -0.3 -5.7 -112.4 0 c-106.2 0 -112.4 0.1 -112.8 1.8 -0.3 0.9 -0.5 -12.3 -0.6 -29.4 l-0.1 -31.2 6.9 -2.5 c18.2 -6.8 43.4 -12.6 64.1 -14.8 14.9 -1.6 49.1 -1.6 65 0 16.8 1.7 41 6.5 53.4 10.6 5.6 1.8 15.6 5.7 22.1 8.8 23.5 10.7 43.7 16.2 69 18.8 5.5 0.5 14.4 1.9 19.8 3.1 8.6 1.8 13.3 2 37 2 33.3 0 57.2 -2 90.1 -7.8 26.7 -4.7 48.7 -11 78 -22.3 12.6 -4.9 36.6 -11.2 51.6 -13.6 13.9 -2.2 50.6 -3.1 68 -1.6 25.2 2.1 54.6 8 81.3 16.2 l9.7 3.1 0 29.4 0 29.4 -114.4 0 c-113.6 0 -114.5 0 -115.1 2 -0.3 1.1 -1.1 2 -1.6 2 -0.5 0 -0.9 1.1 -0.9 2.5 0 1.4 0.5 2.5 1 2.5 0.6 0 1 0.7 1 1.6 0 1 -0.7 1.4 -2.2 1.2 -1.8 -0.2 -2.4 -1.1 -2.6 -3.5 -0.3 -3.3 -3.1 -4.8 -3.3 -1.8 -0.1 0.8 -0.2 2 -0.3 2.6 0 0.7 -0.9 1.7 -1.9 2.3 -2.7 1.7 -7.3 -1.3 -6.9 -4.6 0.1 -1.4 -0.3 -2.8 -1.1 -3.1 -0.9 -0.3 -1.4 0.7 -1.6 3.6 -0.3 6.3 -1.1 6.2 -2.5 -0.5 -1 -4.5 -3.6 -3.5 -3.6 1.3 0 5.2 -2.4 4.8 -2.8 -0.4 -0.4 -4.9 -3.2 -5.1 -3.2 -0.3 0 3.3 -1.4 5.5 -2.7 4.2 -0.4 -0.3 -0.5 -2.6 -0.5 -5.2 0.2 -2.8 -0.2 -4.3 -0.8 -3.9 -0.5 0.3 -1 -0.1 -1 -0.9 0 -0.9 -0.4 -1.6 -0.9 -1.6 -0.6 0 -0.7 2.4 -0.4 5.4 0.6 5.4 0.5 5.5 -2.2 6.2 -3.7 0.9 -6 -0.7 -5.9 -4.2 0 -1.6 -0.4 -3.2 -1 -3.6 -0.8 -0.5 -0.7 -0.8 0.2 -0.8 0.6 0 1.2 -0.7 1.2 -1.5 0 -1.1 -1.1 -1.5 -4 -1.5 -2.7 0 -4 0.4 -4 1.4 0 0.7 -0.7 1.9 -1.5 2.6 -0.8 0.7 -1.5 2.1 -1.5 3.1 0 1.1 0.7 1.9 1.5 1.9 2 0 1.9 1.9 0 2.6 -2.2 0.9 -4.5 -1.4 -4.5 -4.6 0 -1.5 -0.7 -3.3 -1.5 -4 -1.3 -1.1 -1.5 -0.6 -1.5 3.9 0 3.9 -0.4 5.1 -1.5 5.1 -1.2 0 -1.5 -1.3 -1.5 -6.1 0 -5.1 -0.3 -6 -1.7 -5.7 -1.9 0.4 -2.5 4.5 -0.9 7.1 0.9 1.5 0.7 2.1 -0.9 3.3 -2.3 1.7 -5.7 1.5 -6.3 -0.5 -0.3 -1 0 -1.2 1.3 -0.8 2.7 1.1 3.9 -0.4 1.3 -1.7 -1.2 -0.6 -2.3 -2.1 -2.3 -3.1 -0.1 -3 -1.4 -4.5 -4 -4.5 -1.5 0 -2.6 0.7 -3 2 -0.3 1.1 -1.5 2 -2.6 2 -1.5 0 -1.9 0.6 -1.7 2.8 0.2 3.2 -0.9 5.5 -2.3 4.7 -1.3 -0.9 -1.1 -7.9 0.3 -9.3 0.9 -0.9 0.7 -1.3 -0.5 -1.8 -2.7 -1 -3.5 0.4 -3 4.8 0.5 3.3 0.2 4.4 -1.2 5.5 -4.6 3.3 -9 0.1 -8.1 -5.8 0.4 -2.7 0.2 -3.8 -0.9 -4.3 -1.2 -0.4 -1.5 0.5 -1.5 5.3 0 4.5 -0.3 5.8 -1.5 5.8 -1.2 0 -1.5 -1.3 -1.5 -5.9 0 -5.1 -0.2 -5.8 -2 -5.8 -2.3 0 -2.4 0.1 -0.9 3.4 2.6 5.6 -2 10.4 -7.1 7.6 -1.9 -1 -2.2 -1.8 -1.7 -5.6 0.3 -3.3 0.1 -4.4 -0.9 -4.4 -1 0 -1.4 1.3 -1.4 4.5 0 3.5 -0.4 4.7 -2.1 5.5 -5.1 2.8 -10.6 -2.7 -7.5 -7.5 1 -1.5 1.1 -2.2 0.3 -2.3 -0.7 -0.1 -3.1 -0.5 -5.4 -0.8 l-4.1 -0.6 0.5 5.9 c0.5 5.1 0.3 6 -1.1 6 -1.2 0 -1.6 -1 -1.6 -3.9 0 -2.7 -0.4 -3.8 -1.5 -3.8 -1 0 -1.5 1 -1.5 3.4 0 2.1 -0.6 3.6 -1.5 4 -1.5 0.5 -1.9 -0.8 -1.6 -4.6 0.3 -2.2 -1.9 -3.4 -3 -1.7 -0.5 0.8 -0.9 2.4 -0.9 3.7 0 1.4 -0.6 2.2 -1.6 2.2 -1.4 0 -1.6 -0.9 -1.2 -5.5 0.4 -4.1 0.1 -5.5 -0.9 -5.5 -0.9 0 -1.3 1.4 -1.3 4.4 0 4.8 -1.9 7.6 -5 7.6 -2.7 0 -5 -2.7 -5 -6.1 0 -3.1 -0.6 -3.5 -3 -1.9 -1.2 0.7 -1.2 1.1 0.3 2.8 1.7 1.8 1.7 2.1 0.1 3.6 -1.9 1.9 -5.5 1.8 -6.2 -0.3 -0.3 -0.9 0.2 -1.1 1.7 -0.6 1.2 0.3 2.1 0.2 2.1 -0.4 0 -0.5 -0.9 -1.2 -1.9 -1.6 -2.6 -0.8 -3.3 -3.1 -1.6 -4.9 0.8 -0.7 1.1 -1.6 0.8 -2 -1 -1 -5.1 -0.7 -5.8 0.4 -0.3 0.6 -0.2 1 0.4 1 1.4 0 2.3 3.5 1.5 6.5 -0.4 1.8 -1.5 2.8 -3.5 3.2 -1.6 0.3 -2.9 1.2 -2.9 1.9 0 0.8 -0.7 1.4 -1.5 1.4 -1.1 0 -1.5 -1.2 -1.5 -4.5z m147 -1.4 c0 -1.2 -2 -2.5 -2.7 -1.8 -0.7 0.7 0.6 2.7 1.8 2.7 0.5 0 0.9 -0.4 0.9 -0.9z m-201 -2.6 c0 -1.8 -0.5 -2.5 -2 -2.5 -1.5 0 -2 0.7 -2 2.5 0 1.8 0.5 2.5 2 2.5 1.5 0 2 -0.7 2 -2.5z m60.5 0 c0 -1.1 -0.8 -2.1 -1.7 -2.3 -1.4 -0.3 -1.8 0.3 -1.8 2.3 0 2 0.4 2.6 1.8 2.3 0.9 -0.2 1.7 -1.2 1.7 -2.3z m21.3 -2.4 c0.3 -3.7 0.1 -4.2 -1.5 -3.9 -1.8 0.3 -2.7 4.5 -1.7 7.6 0.9 2.8 2.9 0.4 3.2 -3.7z m36 2.4 c-0.2 -1.7 -0.8 -2.5 -2 -2.5 -1.3 0 -1.8 0.8 -1.8 2.5 0 1.8 0.5 2.5 2 2.5 1.5 0 1.9 -0.6 1.8 -2.5z m12.2 0.1 c0 -2.3 -2.2 -4.1 -3.4 -2.9 -0.3 0.4 -0.6 1.7 -0.6 3 0 1.6 0.6 2.3 2 2.3 1.4 0 2 -0.7 2 -2.4z m17 -0.1 c0 -1.8 -0.5 -2.5 -2 -2.5 -1.5 0 -2 0.7 -2 2.5 0 1.8 0.5 2.5 2 2.5 1.5 0 2 -0.7 2 -2.5z"/>
  <path d="M488.4 91.6 c-0.8 -2.2 -0.2 -2.7 1.6 -1.6 1.2 0.7 1.2 1.2 0.3 2.1 -1 1 -1.4 0.9 -1.9 -0.5z"/>
 </g>
 <g fill="#6e0c3b">
  <path d="M0 40.9 l0 -18.7 6.9 -2.5 c18.2 -6.8 43.4 -12.6 64.1 -14.8 14.9 -1.6 49.1 -1.6 65 0 16.8 1.7 41 6.5 53.4 10.6 5.6 1.8 15.6 5.7 22.1 8.8 23.5 10.7 43.7 16.2 69 18.8 5.5 0.5 14.4 1.9 19.8 3.1 8.6 1.8 13.3 2 37 2 33.3 0 57.2 -2 90.1 -7.8 26.7 -4.7 48.7 -11 78 -22.3 12.6 -4.9 36.6 -11.2 51.6 -13.6 13.9 -2.2 50.6 -3.1 68 -1.6 25.2 2.1 54.6 8 81.3 16.2 l9.7 3.1 0 18.6 0 18.7 -358 0 -358 0 0 -18.6z"/>
 </g>
 <g fill="#8e1138">
  <path d="M0.5 32.1 c-0.3 -0.2 -0.5 -2.6 -0.5 -5.2 l0 -4.7 6.9 -2.5 c18.2 -6.8 43.4 -12.6 64.1 -14.8 14.9 -1.6 49.1 -1.6 65 0 16.8 1.7 41 6.5 53.4 10.6 5.6 1.8 15.7 5.8 22.4 8.9 6.8 3.1 13.4 5.9 14.8 6.2 1.4 0.4 2.2 0.9 1.9 1.3 -0.8 0.7 -227.3 0.9 -228 0.2z"/>
  <path d="M474.1 29.3 c6 -1.8 16.4 -5.5 23.3 -8.3 22.3 -8.9 45.6 -14.8 68.2 -17.5 14.7 -1.7 44.5 -2 61.2 -0.5 23.7 2.1 53.8 8.2 79.5 16.1 l9.7 3.1 0 4.9 c0 4.6 -0.1 4.9 -2.7 5 -1.6 0.1 -58.4 0.3 -126.4 0.3 l-123.6 0.2 10.8 -3.3z"/>
 </g>
 <g fill="#ffffff">
  <path d="M298 89.6 c0 -6.6 0.6 -7.6 4.9 -7.6 5.7 0 6.6 9.6 1 10.7 -1.6 0.3 -2.9 1.2 -2.9 1.9 0 0.8 -0.7 1.4 -1.5 1.4 -1.2 0 -1.5 -1.4 -1.5 -6.4z m6.5 -2.1 c0 -1.1 -0.8 -2.1 -1.7 -2.3 -1.4 -0.3 -1.8 0.3 -1.8 2.3 0 2 0.4 2.6 1.8 2.3 0.9 -0.2 1.7 -1.2 1.7 -2.3z"/>
  <path d="M226.4 92.1 c-0.2 -0.2 -0.4 -3.3 -0.4 -6.8 0 -4.7 0.4 -6.3 1.4 -6.3 1.7 0 2.6 3.1 2 7.5 -0.4 3.3 -0.3 3.5 2.7 3.5 4.5 0 3.1 2.3 -1.5 2.4 -2.1 0.1 -4 -0.1 -4.2 -0.3z"/>
  <path d="M238.8 91.9 c-2.1 -1.2 -2.4 -6.9 -0.6 -8.7 3 -3 8.8 -0.2 8.8 4.3 0 4.4 -4.3 6.7 -8.2 4.4z m5.2 -4.3 c0 -2.3 -2.2 -4.1 -3.4 -2.9 -0.3 0.4 -0.6 1.7 -0.6 3 0 1.6 0.6 2.3 2 2.3 1.4 0 2 -0.7 2 -2.4z"/>
  <path d="M249 87.9 c0 -4.3 0.3 -4.9 2.4 -5.5 2.6 -0.6 4.6 0.1 4.6 1.7 0 0.5 -0.9 0.9 -2 0.9 -1.7 0 -2 0.7 -2 3.8 0 2.8 -0.4 3.9 -1.5 3.9 -1.1 0 -1.5 -1.2 -1.5 -4.8z"/>
  <path d="M258.8 91.9 c-2.1 -1.2 -2.4 -6.9 -0.6 -8.7 2.7 -2.7 7.8 -0.7 7.8 3 0 1.3 -0.8 1.8 -3 1.8 -1.6 0 -3 0.5 -3 1 0 0.6 1.2 1 2.6 1 1.6 0 2.4 0.5 2.2 1.3 -0.6 1.6 -3.8 2 -6 0.6z"/>
  <path d="M269.3 92.3 c-2.1 -0.7 -1.6 -8.1 0.5 -9.2 2.4 -1.3 11.4 -1.2 12.9 0.1 1.9 1.6 1.7 9.8 -0.2 9.8 -1.1 0 -1.5 -1.1 -1.5 -4 0 -5.2 -2.7 -5.7 -3.2 -0.5 -0.4 4.8 -2.2 4.9 -2.6 0.3 -0.2 -2.9 -0.7 -3.8 -2.2 -3.8 -1.5 0 -2 0.9 -2.2 3.8 -0.2 2.6 -0.7 3.7 -1.5 3.5z"/>
  <path d="M293.3 92.3 c-1.9 -0.7 -1.7 -9.3 0.2 -9.3 1.1 0 1.5 1.2 1.5 5 0 2.8 -0.1 5 -0.2 4.9 -0.2 0 -0.9 -0.3 -1.5 -0.6z"/>
  <path d="M310.7 92.3 c-1.4 -1.3 -0.6 -2.4 1.3 -1.8 1.1 0.3 2 0.2 2 -0.4 0 -0.5 -0.9 -1.2 -1.9 -1.6 -2.7 -0.8 -3.3 -3.1 -1.4 -5 1.8 -1.9 5.4 -1.6 6.1 0.4 0.3 0.9 -0.2 1.1 -1.7 0.6 -2.7 -0.8 -2.7 0.6 -0.1 2.3 2.4 1.5 2.6 4.7 0.4 5.6 -2 0.8 -3.9 0.8 -4.7 -0.1z"/>
  <path d="M320.5 91.4 c-1 -1.1 -1.5 -2.9 -1.3 -5.2 0.4 -4.9 2.6 -5.3 3 -0.5 0.2 2.7 0.8 3.9 2.1 4.1 1.4 0.3 1.7 -0.4 1.7 -3.8 0 -5.2 2.4 -5 2.8 0.2 0.3 3.9 -1.7 6.8 -4.8 6.8 -1 0 -2.6 -0.7 -3.5 -1.6z"/>
  <path d="M337.8 89.2 c-0.2 -2.6 -0.8 -3.8 -2 -4 -1.5 -0.3 -1.8 0.4 -1.8 3.2 0 2.5 -0.4 3.6 -1.5 3.6 -2.3 0 -2 -7.6 0.3 -8.9 2.4 -1.3 11.4 -1.2 12.9 0.1 1.9 1.5 1.7 9.5 -0.2 9.5 -1.1 0 -1.5 -1.1 -1.5 -3.9 0 -2.7 -0.4 -3.8 -1.5 -3.8 -1 0 -1.5 1 -1.5 3.4 0 5 -2.8 5.7 -3.2 0.8z"/>
  <path d="M356.8 91.9 c-2.1 -1.2 -2.4 -6.9 -0.6 -8.7 0.7 -0.7 2.2 -1.2 3.5 -1.2 1.6 0 2.3 -0.6 2.3 -2 0 -1.1 0.7 -2 1.5 -2 1.2 0 1.5 1.4 1.5 6.5 0 5.3 -0.3 6.6 -1.9 7.5 -2.4 1.2 -4.1 1.2 -6.3 -0.1z m5.2 -4.4 c0 -1.8 -0.5 -2.5 -2 -2.5 -1.5 0 -2 0.7 -2 2.5 0 1.8 0.5 2.5 2 2.5 1.5 0 2 -0.7 2 -2.5z"/>
  <path d="M368.8 91.9 c-2.1 -1.2 -2.4 -6.9 -0.6 -8.7 3 -3 8.8 -0.2 8.8 4.3 0 4.4 -4.3 6.7 -8.2 4.4z m5.2 -4.3 c0 -2.3 -2.2 -4.1 -3.4 -2.9 -0.3 0.4 -0.6 1.7 -0.6 3 0 1.6 0.6 2.3 2 2.3 1.4 0 2 -0.7 2 -2.4z"/>
  <path d="M379 85.8 c0 -5.4 0.3 -6.8 1.5 -6.8 1.2 0 1.5 1.4 1.5 6.8 0 5.4 -0.3 6.9 -1.5 6.9 -1.2 0 -1.5 -1.5 -1.5 -6.9z"/>
  <path d="M385.6 91.4 c-3.3 -3.3 -1.2 -9.4 3.2 -9.4 3.7 0 5.2 1.7 5.2 5.7 0 4.8 -5.1 7.1 -8.4 3.7z m5.4 -3.7 c0 -1.3 -0.3 -2.6 -0.6 -3 -1.2 -1.2 -3.4 0.6 -3.4 2.9 0 1.7 0.6 2.4 2 2.4 1.4 0 2 -0.7 2 -2.3z"/>
  <path d="M396.6 92.3 c-1.1 -1.1 -0.7 -7.8 0.6 -9.1 1.7 -1.7 5.8 -1.5 5.8 0.3 0 0.8 -0.9 1.5 -2 1.5 -1.6 0 -2 0.7 -2 3.4 0 3.4 -1.1 5.2 -2.4 3.9z"/>
  <path d="M410.7 92.3 c-1.4 -1.3 -0.6 -2.4 1.2 -1.8 1.1 0.3 2.2 0.2 2.5 -0.3 0.3 -0.6 -0.3 -1.2 -1.4 -1.5 -2.6 -0.7 -3.6 -3.3 -1.9 -5.3 1.4 -1.7 5 -1.5 5.7 0.4 0.2 0.7 -0.2 1 -1.1 0.6 -2.6 -1 -2.7 1.3 -0.2 2.4 1.4 0.7 2.5 1.8 2.5 2.6 0 2.5 -5.6 4.7 -7.3 2.9z"/>
  <path d="M420.2 87.8 c0.4 -6.7 2.2 -6.5 2.6 0.2 0.2 4 0 5 -1.3 5 -1.3 0 -1.5 -1 -1.3 -5.2z"/>
  <path d="M427.3 91.8 c-1.3 -1.6 -2.4 -8.5 -1.6 -10.4 0.7 -2 3.6 -1.7 5 0.5 1 1.5 0.9 2.2 -0.2 3.1 -2 1.7 -1.9 5 0.1 5 1.9 0 1.3 2.4 -0.8 2.8 -0.8 0.2 -1.9 -0.3 -2.5 -1z"/>
  <path d="M440.2 91.8 c-2.7 -2.7 0.5 -7.3 3.8 -5.3 0.5 0.3 1 0.1 1 -0.4 0 -0.6 -1.2 -1.1 -2.6 -1.1 -1.6 0 -2.4 -0.5 -2.2 -1.2 0.6 -1.8 4.6 -2.2 6.4 -0.8 2 1.7 1.9 8.6 -0.2 9.4 -2.5 0.9 -4.9 0.7 -6.2 -0.6z m4.8 -2.3 c0 -0.8 -0.7 -1.5 -1.5 -1.5 -1.6 0 -2 1.2 -0.8 2.3 1.1 1.2 2.3 0.8 2.3 -0.8z"/>
  <path d="M451 88.2 c0 -5.8 0.3 -6 8.8 -6 6 -0.1 6.5 0.4 6 6.9 -0.4 4.4 -1.1 3.9 -2.2 -1.3 -1 -4.5 -3.6 -3.5 -3.6 1.3 0 5.2 -2.4 4.8 -2.8 -0.4 -0.4 -5 -3 -5 -3.4 0 -0.5 5.8 -2.8 5.4 -2.8 -0.5z"/>
  <path d="M470.8 91.9 c-2.1 -1.2 -2.4 -6.9 -0.6 -8.7 1.8 -1.8 5.6 -1.4 6.8 0.7 1.6 3.2 1.2 4.1 -2 4.1 -1.6 0 -3 0.5 -3 1 0 0.6 1.2 1 2.6 1 1.6 0 2.4 0.5 2.2 1.3 -0.6 1.6 -3.8 2 -6 0.6z"/>
  <path d="M481.7 92.3 c-0.4 -0.3 -0.7 -2.1 -0.7 -3.9 0 -1.8 -0.4 -3.6 -1 -3.9 -0.6 -0.4 -0.5 -1.3 0.3 -2.5 1.4 -2.4 2.4 -2.5 4.3 -0.6 1.6 1.7 1.9 3.6 0.4 3.6 -0.5 0 -1 1.1 -1 2.5 0 1.4 0.5 2.5 1 2.5 0.6 0 1 0.7 1 1.5 0 1.5 -3.1 2.1 -4.3 0.8z"/>
  <path d="M488.6 92.3 c-1.1 -1.1 -0.6 -2.3 0.9 -2.3 0.8 0 1.5 0.4 1.5 0.9 0 1.3 -1.6 2.2 -2.4 1.4z"/>
  <path d="M292 80 c0 -0.5 0.7 -1 1.5 -1 0.8 0 1.5 0.5 1.5 1 0 0.6 -0.7 1 -1.5 1 -0.8 0 -1.5 -0.4 -1.5 -1z"/>
  <path d="M420 80 c0 -0.5 0.7 -1 1.5 -1 0.8 0 1.5 0.5 1.5 1 0 0.6 -0.7 1 -1.5 1 -0.8 0 -1.5 -0.4 -1.5 -1z"/>
 </g>
</svg>